<svg width="1200" height="1908" viewBox="0 0 1200 1908" fill="none" xmlns="http://www.w3.org/2000/svg">
<g clip-path="url(#clip0_1834_6961)">
<rect width="1200" height="1908" fill="#EFF0F3"/>
<path d="M-154.998 -114.969C-122.628 -156.96 -62.3461 -164.759 -20.3554 -132.388L206.457 42.4593C207.769 43.4709 208.013 45.3547 207.001 46.6669L154.831 114.343C122.46 156.333 62.179 164.132 20.1883 131.762L-206.624 -43.0859C-207.936 -44.0975 -208.18 -45.9813 -207.168 -47.2935L-154.998 -114.969Z" fill="#0A6AE0" fill-opacity="0.05"/>
<path d="M672.166 871.499C652.745 822.166 676.993 766.428 726.327 747.006L992.804 642.099C994.346 641.492 996.088 642.25 996.695 643.791L1028 723.302C1047.42 772.636 1023.17 828.374 973.836 847.796L707.359 952.703C705.817 953.31 704.075 952.552 703.468 951.01L672.166 871.499Z" fill="#0A6AE0" fill-opacity="0.04"/>
<path d="M334.166 267.5C314.745 218.166 338.993 162.428 388.327 143.006L654.804 38.099C656.346 37.492 658.088 38.2498 658.695 39.7915L689.997 119.302C709.418 168.636 685.17 224.374 635.836 243.796L369.359 348.703C367.817 349.31 366.075 348.552 365.468 347.01L334.166 267.5Z" fill="#0A6AE0" fill-opacity="0.03"/>
<path d="M-75.8336 624.5C-95.2554 575.166 -71.0069 519.428 -21.6729 500.006L244.804 395.099C246.346 394.492 248.088 395.25 248.695 396.792L279.997 476.302C299.418 525.636 275.17 581.374 225.836 600.796L-40.6413 705.703C-42.183 706.31 -43.9248 705.552 -44.5317 704.01L-75.8336 624.5Z" fill="#0A6AE0" fill-opacity="0.04"/>
<path d="M-264.834 796.499C-284.255 747.166 -260.007 691.428 -210.673 672.006L55.8042 567.099C57.3459 566.492 59.0877 567.25 59.6947 568.791L90.9966 648.302C110.418 697.636 86.1699 753.374 36.8359 772.796L-229.641 877.703C-231.183 878.31 -232.925 877.552 -233.532 876.01L-264.834 796.499Z" fill="#0A6AE0" fill-opacity="0.06"/>
<path d="M542.166 95.4996C522.745 46.1656 546.993 -9.57205 596.327 -28.9939L862.804 -133.901C864.346 -134.508 866.088 -133.75 866.695 -132.208L897.997 -52.6978C917.418 -3.36379 893.17 52.3739 843.836 71.7957L577.359 176.703C575.817 177.31 574.075 176.552 573.468 175.01L542.166 95.4996Z" fill="#0A6AE0" fill-opacity="0.05"/>
<path d="M-437.834 343.101C-457.255 293.767 -433.007 238.029 -383.673 218.607L74.8411 38.099C76.3828 37.492 78.1246 38.2498 78.7316 39.7915L146.217 211.214C165.639 260.548 141.391 316.286 92.0567 335.707L-366.457 516.216C-367.999 516.823 -369.741 516.065 -370.348 514.523L-437.834 343.101Z" fill="#0A6AE0" fill-opacity="0.04"/>
<path d="M453.166 673.101C433.745 623.767 457.993 568.029 507.327 548.607L965.841 368.099C967.383 367.492 969.125 368.25 969.732 369.791L1037.22 541.214C1056.64 590.548 1032.39 646.286 983.057 665.707L524.543 846.216C523.001 846.823 521.259 846.065 520.652 844.523L453.166 673.101Z" fill="#0A6AE0" fill-opacity="0.04"/>
<path d="M805.166 368.101C785.745 318.767 809.993 263.029 859.327 243.607L1317.84 63.099C1319.38 62.492 1321.12 63.2498 1321.73 64.7915L1389.22 236.214C1408.64 285.548 1384.39 341.286 1335.06 360.707L876.543 541.216C875.001 541.823 873.259 541.065 872.652 539.523L805.166 368.101Z" fill="#0A6AE0" fill-opacity="0.04"/>
<path d="M1173.17 61.1009C1153.74 11.7669 1177.99 -43.9707 1227.33 -63.3926L1685.84 -243.901C1687.38 -244.508 1689.12 -243.75 1689.73 -242.209L1757.22 -70.786C1776.64 -21.452 1752.39 34.2856 1703.06 53.7075L1244.54 234.216C1243 234.823 1241.26 234.065 1240.65 232.523L1173.17 61.1009Z" fill="#0A6AE0" fill-opacity="0.05"/>
<g clip-path="url(#clip1_1834_6961)">
<rect width="1200" height="952" transform="translate(0 954)" fill="#EFF0F3"/>
<path d="M672.166 1825.5C652.745 1776.17 676.993 1720.43 726.327 1701.01L992.804 1596.1C994.346 1595.49 996.088 1596.25 996.695 1597.79L1028 1677.3C1047.42 1726.64 1023.17 1782.37 973.836 1801.8L707.359 1906.7C705.817 1907.31 704.075 1906.55 703.468 1905.01L672.166 1825.5Z" fill="#0A6AE0" fill-opacity="0.04"/>
<path d="M334.166 1221.5C314.745 1172.17 338.993 1116.43 388.327 1097.01L654.804 992.099C656.346 991.492 658.088 992.25 658.695 993.792L689.997 1073.3C709.418 1122.64 685.17 1178.37 635.836 1197.8L369.359 1302.7C367.817 1303.31 366.075 1302.55 365.468 1301.01L334.166 1221.5Z" fill="#0A6AE0" fill-opacity="0.03"/>
<path d="M-75.8336 1578.5C-95.2554 1529.17 -71.0069 1473.43 -21.6729 1454.01L244.804 1349.1C246.346 1348.49 248.088 1349.25 248.695 1350.79L279.997 1430.3C299.418 1479.64 275.17 1535.37 225.836 1554.8L-40.6413 1659.7C-42.183 1660.31 -43.9248 1659.55 -44.5317 1658.01L-75.8336 1578.5Z" fill="#0A6AE0" fill-opacity="0.04"/>
<path d="M-264.834 1750.5C-284.255 1701.17 -260.007 1645.43 -210.673 1626.01L55.8042 1521.1C57.3459 1520.49 59.0877 1521.25 59.6947 1522.79L90.9966 1602.3C110.418 1651.64 86.1699 1707.37 36.8359 1726.8L-229.641 1831.7C-231.183 1832.31 -232.925 1831.55 -233.532 1830.01L-264.834 1750.5Z" fill="#0A6AE0" fill-opacity="0.06"/>
<path d="M-437.834 1297.1C-457.255 1247.77 -433.007 1192.03 -383.673 1172.61L74.8411 992.099C76.3828 991.492 78.1246 992.25 78.7316 993.791L146.217 1165.21C165.639 1214.55 141.391 1270.29 92.0567 1289.71L-366.457 1470.22C-367.999 1470.82 -369.741 1470.07 -370.348 1468.52L-437.834 1297.1Z" fill="#0A6AE0" fill-opacity="0.04"/>
<path d="M453.166 1627.1C433.745 1577.77 457.993 1522.03 507.327 1502.61L965.841 1322.1C967.383 1321.49 969.125 1322.25 969.732 1323.79L1037.22 1495.21C1056.64 1544.55 1032.39 1600.29 983.057 1619.71L524.543 1800.22C523.001 1800.82 521.259 1800.07 520.652 1798.52L453.166 1627.1Z" fill="#0A6AE0" fill-opacity="0.04"/>
<path d="M805.166 1322.1C785.745 1272.77 809.993 1217.03 859.327 1197.61L1317.84 1017.1C1319.38 1016.49 1321.12 1017.25 1321.73 1018.79L1389.22 1190.21C1408.64 1239.55 1384.39 1295.29 1335.06 1314.71L876.543 1495.22C875.001 1495.82 873.259 1495.07 872.652 1493.52L805.166 1322.1Z" fill="#0A6AE0" fill-opacity="0.04"/>
</g>
</g>
<defs>
<clipPath id="clip0_1834_6961">
<rect width="1200" height="1908" fill="white"/>
</clipPath>
<clipPath id="clip1_1834_6961">
<rect width="1200" height="952" fill="white" transform="translate(0 954)"/>
</clipPath>
</defs>
</svg>
