<svg width="240" height="52" viewBox="0 0 240 52" fill="none" xmlns="http://www.w3.org/2000/svg">
<path d="M94.5 11C94.5 4.92487 99.4249 0 105.5 0H144.5C145.052 0 145.5 0.447715 145.5 1V13C145.5 19.0751 140.575 24 134.5 24H95.5C94.9477 24 94.5 23.5523 94.5 23V11Z" fill="#0A6AE0"/>
<path d="M79.8423 44.288C78.9383 44.288 78.1263 44.072 77.4063 43.64C76.6943 43.208 76.1303 42.604 75.7143 41.828C75.3063 41.044 75.1023 40.128 75.1023 39.08C75.1023 38.032 75.3063 37.12 75.7143 36.344C76.1303 35.56 76.6943 34.952 77.4063 34.52C78.1263 34.08 78.9383 33.86 79.8423 33.86C80.5703 33.86 81.2103 33.988 81.7623 34.244C82.3143 34.492 82.7543 34.784 83.0823 35.12C83.4103 35.456 83.5983 35.748 83.6463 35.996V27.488H85.7463V44H83.6823V42.08C83.5943 42.352 83.3743 42.66 83.0223 43.004C82.6783 43.348 82.2343 43.648 81.6903 43.904C81.1463 44.16 80.5303 44.288 79.8423 44.288ZM80.3223 42.56C80.9303 42.56 81.4863 42.416 81.9903 42.128C82.4943 41.84 82.8943 41.436 83.1903 40.916C83.4943 40.388 83.6463 39.776 83.6463 39.08C83.6463 38.384 83.4943 37.776 83.1903 37.256C82.8943 36.728 82.4943 36.32 81.9903 36.032C81.4863 35.736 80.9303 35.588 80.3223 35.588C79.7623 35.588 79.2423 35.732 78.7623 36.02C78.2823 36.308 77.8943 36.712 77.5983 37.232C77.3103 37.752 77.1663 38.368 77.1663 39.08C77.1663 39.792 77.3103 40.408 77.5983 40.928C77.8943 41.448 78.2823 41.852 78.7623 42.14C79.2423 42.42 79.7623 42.56 80.3223 42.56ZM92.6442 44.288C91.6282 44.288 90.7242 44.06 89.9322 43.604C89.1482 43.148 88.5322 42.532 88.0842 41.756C87.6362 40.972 87.4122 40.088 87.4122 39.104C87.4122 38.12 87.6362 37.232 88.0842 36.44C88.5322 35.648 89.1482 35.02 89.9322 34.556C90.7242 34.092 91.6282 33.86 92.6442 33.86C93.6522 33.86 94.5442 34.092 95.3202 34.556C96.1042 35.02 96.7162 35.648 97.1562 36.44C97.5962 37.232 97.8162 38.12 97.8162 39.104C97.8162 40.088 97.5962 40.972 97.1562 41.756C96.7162 42.532 96.1042 43.148 95.3202 43.604C94.5442 44.06 93.6522 44.288 92.6442 44.288ZM92.6442 42.5C93.2842 42.5 93.8402 42.352 94.3122 42.056C94.7922 41.76 95.1642 41.356 95.4282 40.844C95.6922 40.324 95.8242 39.74 95.8242 39.092C95.8242 38.444 95.6922 37.86 95.4282 37.34C95.1642 36.82 94.7922 36.408 94.3122 36.104C93.8402 35.8 93.2842 35.648 92.6442 35.648C91.9962 35.648 91.4322 35.8 90.9522 36.104C90.4722 36.408 90.0962 36.82 89.8242 37.34C89.5602 37.86 89.4282 38.444 89.4282 39.092C89.4282 39.74 89.5602 40.324 89.8242 40.844C90.0962 41.356 90.4722 41.76 90.9522 42.056C91.4322 42.352 91.9962 42.5 92.6442 42.5ZM104.775 42.56C105.399 42.56 105.903 42.46 106.287 42.26C106.671 42.06 106.911 41.916 107.007 41.828L108.027 43.328C107.947 43.4 107.755 43.516 107.451 43.676C107.155 43.828 106.771 43.968 106.299 44.096C105.835 44.224 105.307 44.288 104.715 44.288C103.811 44.288 102.971 44.088 102.195 43.688C101.419 43.28 100.791 42.688 100.311 41.912C99.8391 41.136 99.6031 40.188 99.6031 39.068C99.6031 37.94 99.8391 36.992 100.311 36.224C100.791 35.448 101.419 34.86 102.195 34.46C102.971 34.06 103.811 33.86 104.715 33.86C105.299 33.86 105.819 33.932 106.275 34.076C106.731 34.212 107.107 34.364 107.403 34.532C107.699 34.7 107.895 34.828 107.991 34.916L106.959 36.416C106.895 36.352 106.771 36.256 106.587 36.128C106.411 35.992 106.171 35.868 105.867 35.756C105.563 35.644 105.199 35.588 104.775 35.588C104.263 35.588 103.763 35.728 103.275 36.008C102.795 36.28 102.399 36.676 102.087 37.196C101.775 37.716 101.619 38.34 101.619 39.068C101.619 39.796 101.775 40.424 102.087 40.952C102.399 41.472 102.795 41.872 103.275 42.152C103.763 42.424 104.263 42.56 104.775 42.56ZM112.048 39.116C112.048 40.148 112.268 40.972 112.708 41.588C113.156 42.196 113.84 42.5 114.76 42.5C115.688 42.5 116.372 42.196 116.812 41.588C117.252 40.972 117.472 40.148 117.472 39.116V34.148H119.536V39.404C119.536 40.364 119.348 41.212 118.972 41.948C118.604 42.684 118.064 43.26 117.352 43.676C116.648 44.084 115.784 44.288 114.76 44.288C113.744 44.288 112.88 44.084 112.168 43.676C111.464 43.26 110.924 42.684 110.548 41.948C110.18 41.212 109.996 40.364 109.996 39.404V34.148H112.048V39.116ZM127.881 33.86C128.529 33.86 129.157 33.996 129.765 34.268C130.381 34.54 130.885 34.972 131.277 35.564C131.677 36.148 131.877 36.912 131.877 37.856V44H129.765V38.264C129.765 37.288 129.537 36.58 129.081 36.14C128.625 35.692 128.037 35.468 127.317 35.468C126.845 35.468 126.389 35.604 125.949 35.876C125.517 36.14 125.161 36.508 124.881 36.98C124.601 37.444 124.461 37.972 124.461 38.564V44H122.373V34.148H124.461V35.9C124.533 35.628 124.729 35.332 125.049 35.012C125.369 34.692 125.777 34.42 126.273 34.196C126.769 33.972 127.305 33.86 127.881 33.86ZM138.952 44.288C138.048 44.288 137.236 44.072 136.516 43.64C135.804 43.208 135.24 42.604 134.824 41.828C134.416 41.044 134.212 40.128 134.212 39.08C134.212 38.032 134.416 37.12 134.824 36.344C135.24 35.56 135.804 34.952 136.516 34.52C137.236 34.08 138.048 33.86 138.952 33.86C139.68 33.86 140.32 33.988 140.872 34.244C141.424 34.492 141.864 34.784 142.192 35.12C142.52 35.456 142.708 35.748 142.756 35.996V27.488H144.856V44H142.792V42.08C142.704 42.352 142.484 42.66 142.132 43.004C141.788 43.348 141.344 43.648 140.8 43.904C140.256 44.16 139.64 44.288 138.952 44.288ZM139.432 42.56C140.04 42.56 140.596 42.416 141.1 42.128C141.604 41.84 142.004 41.436 142.3 40.916C142.604 40.388 142.756 39.776 142.756 39.08C142.756 38.384 142.604 37.776 142.3 37.256C142.004 36.728 141.604 36.32 141.1 36.032C140.596 35.736 140.04 35.588 139.432 35.588C138.872 35.588 138.352 35.732 137.872 36.02C137.392 36.308 137.004 36.712 136.708 37.232C136.42 37.752 136.276 38.368 136.276 39.08C136.276 39.792 136.42 40.408 136.708 40.928C137.004 41.448 137.392 41.852 137.872 42.14C138.352 42.42 138.872 42.56 139.432 42.56ZM148.502 39.5C148.51 40.092 148.638 40.632 148.886 41.12C149.134 41.608 149.502 41.996 149.99 42.284C150.486 42.572 151.094 42.716 151.814 42.716C152.422 42.716 152.938 42.628 153.362 42.452C153.794 42.268 154.146 42.052 154.418 41.804C154.69 41.548 154.886 41.32 155.006 41.12L156.026 42.38C155.762 42.764 155.438 43.1 155.054 43.388C154.678 43.676 154.218 43.896 153.674 44.048C153.13 44.208 152.466 44.288 151.682 44.288C150.626 44.288 149.71 44.064 148.934 43.616C148.166 43.16 147.574 42.532 147.158 41.732C146.742 40.924 146.534 40 146.534 38.96C146.534 38 146.73 37.136 147.122 36.368C147.514 35.592 148.082 34.98 148.826 34.532C149.578 34.084 150.482 33.86 151.538 33.86C152.506 33.86 153.346 34.064 154.058 34.472C154.778 34.872 155.334 35.44 155.726 36.176C156.126 36.912 156.326 37.792 156.326 38.816C156.326 38.88 156.322 38.996 156.314 39.164C156.306 39.324 156.298 39.436 156.29 39.5H148.502ZM154.334 37.928C154.326 37.6 154.23 37.24 154.046 36.848C153.87 36.456 153.582 36.12 153.182 35.84C152.782 35.56 152.242 35.42 151.562 35.42C150.858 35.42 150.29 35.556 149.858 35.828C149.434 36.1 149.122 36.432 148.922 36.824C148.722 37.208 148.606 37.576 148.574 37.928H154.334ZM160.683 44H158.607V34.148H160.683V35.852H160.623C160.663 35.644 160.811 35.384 161.067 35.072C161.323 34.76 161.675 34.48 162.123 34.232C162.571 33.984 163.107 33.86 163.731 33.86C164.187 33.86 164.587 33.924 164.931 34.052C165.283 34.172 165.531 34.292 165.675 34.412L164.823 36.14C164.711 36.028 164.515 35.916 164.235 35.804C163.955 35.684 163.607 35.624 163.191 35.624C162.663 35.624 162.211 35.788 161.835 36.116C161.459 36.444 161.171 36.84 160.971 37.304C160.779 37.76 160.683 38.184 160.683 38.576V44Z" fill="#111129"/>
</svg>
