<svg width="25" height="25" viewBox="0 0 25 25" fill="none" xmlns="http://www.w3.org/2000/svg">
<mask id="mask0_1323_706" style="mask-type:alpha" maskUnits="userSpaceOnUse" x="0" y="0" width="25" height="25">
<rect x="24" y="1" width="23" height="23" transform="rotate(90 24 1)" fill="#D9D9D9" stroke="#111129"/>
</mask>
<g mask="url(#mask0_1323_706)">
<mask id="path-2-inside-1_1323_706" fill="white">
<path d="M6.5 14.5L12.5 8.5L18.5 14.5L17.8145 15.1855L12.5 9.87107L7.18554 15.1855L6.5 14.5Z"/>
</mask>
<path d="M6.5 14.5L12.5 8.5L18.5 14.5L17.8145 15.1855L12.5 9.87107L7.18554 15.1855L6.5 14.5Z" fill="#111129"/>
<path d="M6.5 14.5L5.79289 13.7929L5.08579 14.5L5.79289 15.2071L6.5 14.5ZM12.5 8.5L13.2071 7.79289L12.5 7.08579L11.7929 7.79289L12.5 8.5ZM18.5 14.5L19.2071 15.2071L19.9142 14.5L19.2071 13.7929L18.5 14.5ZM17.8145 15.1855L17.1073 15.8927L17.8145 16.5998L18.5216 15.8927L17.8145 15.1855ZM12.5 9.87107L13.2071 9.16397L12.5 8.45686L11.7929 9.16397L12.5 9.87107ZM7.18554 15.1855L6.47844 15.8927L7.18555 16.5998L7.89265 15.8927L7.18554 15.1855ZM7.20711 15.2071L13.2071 9.20711L11.7929 7.79289L5.79289 13.7929L7.20711 15.2071ZM11.7929 9.20711L17.7929 15.2071L19.2071 13.7929L13.2071 7.79289L11.7929 9.20711ZM17.7929 13.7929L17.1073 14.4784L18.5216 15.8927L19.2071 15.2071L17.7929 13.7929ZM18.5216 14.4784L13.2071 9.16397L11.7929 10.5782L17.1073 15.8927L18.5216 14.4784ZM11.7929 9.16397L6.47844 14.4784L7.89265 15.8927L13.2071 10.5782L11.7929 9.16397ZM7.89265 14.4784L7.20711 13.7929L5.79289 15.2071L6.47844 15.8927L7.89265 14.4784Z" fill="#111129" mask="url(#path-2-inside-1_1323_706)"/>
</g>
</svg>
