<svg width="25" height="24" viewBox="0 0 25 24" fill="none" xmlns="http://www.w3.org/2000/svg">
<mask id="mask0_1164_10994" style="mask-type:alpha" maskUnits="userSpaceOnUse" x="0" y="0" width="25" height="24">
<rect x="0.5" width="24" height="24" fill="#D9D9D9"/>
</mask>
<g mask="url(#mask0_1164_10994)">
<path d="M8.11537 20C7.66794 20 7.28685 19.8427 6.9721 19.5279C6.65737 19.2132 6.5 18.8321 6.5 18.3847V6.00002H5.5V5.00002H9.5V4.23077H15.5V5.00002H19.5V6.00002H18.5V18.3847C18.5 18.8449 18.3458 19.2292 18.0375 19.5375C17.7292 19.8459 17.3449 20 16.8846 20H8.11537ZM17.5 6.00002H7.5V18.3847C7.5 18.5641 7.55769 18.7116 7.67308 18.827C7.78846 18.9423 7.93589 19 8.11537 19H16.8846C17.0385 19 17.1795 18.9359 17.3077 18.8077C17.4359 18.6795 17.5 18.5385 17.5 18.3847V6.00002ZM10.3077 17H11.3077V8.00002H10.3077V17ZM13.6923 17H14.6923V8.00002H13.6923V17Z" fill="currentColor"/>
</g>
</svg>
