<svg width="25" height="24" viewBox="0 0 25 24" fill="none" xmlns="http://www.w3.org/2000/svg">
<mask id="mask0_1164_10979" style="mask-type:alpha" maskUnits="userSpaceOnUse" x="0" y="0" width="25" height="24">
<rect x="0.5" width="24" height="24" fill="#D9D9D9"/>
</mask>
<g mask="url(#mask0_1164_10979)">
<path d="M5.11538 16.4232H19.8846C20.0641 16.4232 20.2115 16.3655 20.3269 16.2501C20.4423 16.1347 20.5 15.9873 20.5 15.8078V10.6539H4.5V15.8078C4.5 15.9873 4.55769 16.1347 4.67308 16.2501C4.78846 16.3655 4.93589 16.4232 5.11538 16.4232ZM17.6131 14.5386C17.8903 14.5386 18.1266 14.4415 18.3221 14.2475C18.5176 14.0535 18.6154 13.818 18.6154 13.5408C18.6154 13.2637 18.5184 13.0273 18.3244 12.8318C18.1304 12.6363 17.8948 12.5385 17.6177 12.5385C17.3405 12.5385 17.1042 12.6355 16.9087 12.8296C16.7131 13.0236 16.6154 13.2591 16.6154 13.5363C16.6154 13.8134 16.7124 14.0498 16.9064 14.2453C17.1004 14.4408 17.336 14.5386 17.6131 14.5386ZM21.5 9.65393H20.0981L17.675 7.15393H7.325L4.90192 9.65393H3.5L6.44423 6.63276C6.58909 6.47507 6.76171 6.35585 6.96207 6.27508C7.16243 6.19431 7.37314 6.15393 7.59423 6.15393H17.4058C17.6269 6.15393 17.8376 6.19431 18.0379 6.27508C18.2383 6.35585 18.4109 6.47507 18.5558 6.63276L21.5 9.65393ZM5.11538 17.4232C4.67114 17.4232 4.29086 17.265 3.97453 16.9487C3.65818 16.6323 3.5 16.252 3.5 15.8078V9.65393H21.5V15.8078C21.5 16.252 21.3418 16.6323 21.0255 16.9487C20.7091 17.265 20.3289 17.4232 19.8846 17.4232H5.11538Z" fill="#111129"/>
</g>
</svg>
