<svg width="25" height="24" viewBox="0 0 25 24" fill="none" xmlns="http://www.w3.org/2000/svg">
<path d="M12.5373 18.9744C12.8321 18.9744 13.0808 18.8726 13.2833 18.6691C13.4859 18.4655 13.5872 18.2164 13.5872 17.9216C13.5872 17.6269 13.4854 17.3782 13.2819 17.1756C13.0784 16.9731 12.8292 16.8718 12.5345 16.8718C12.2397 16.8718 11.991 16.9736 11.7885 17.1771C11.5859 17.3806 11.4846 17.6298 11.4846 17.9245C11.4846 18.2193 11.5864 18.468 11.7899 18.6705C11.9934 18.8731 12.2426 18.9744 12.5373 18.9744ZM11.8487 14.559H13.1359C13.1701 13.9795 13.2791 13.5085 13.4628 13.1462C13.6466 12.7838 14.0248 12.3214 14.5974 11.759C15.1923 11.1641 15.635 10.6312 15.9256 10.1603C16.2162 9.68931 16.3615 9.14421 16.3615 8.52497C16.3615 7.47412 15.9923 6.63673 15.2539 6.0128C14.5155 5.38887 13.6419 5.0769 12.6333 5.0769C11.6744 5.0769 10.8603 5.33759 10.191 5.85897C9.52179 6.38034 9.03161 6.97949 8.7205 7.6564L9.94617 8.1641C10.1598 7.67863 10.4654 7.24958 10.8628 6.87693C11.2603 6.50427 11.8333 6.31793 12.5821 6.31793C13.447 6.31793 14.0786 6.55512 14.4769 7.0295C14.8752 7.50386 15.0744 8.02565 15.0744 8.59487C15.0744 9.0564 14.9496 9.46879 14.7 9.83203C14.4504 10.1953 14.1256 10.5607 13.7256 10.9282C12.953 11.641 12.447 12.2453 12.2077 12.741C11.9684 13.2367 11.8487 13.8427 11.8487 14.559ZM12.5045 24C10.8451 24 9.28496 23.6851 7.82413 23.0554C6.36331 22.4256 5.09259 21.5709 4.01197 20.4913C2.93137 19.4117 2.07589 18.1422 1.44553 16.6827C0.815178 15.2233 0.5 13.6638 0.5 12.0045C0.5 10.3451 0.814878 8.78496 1.44463 7.32413C2.07441 5.86331 2.9291 4.59259 4.0087 3.51197C5.0883 2.43137 6.35782 1.57589 7.81727 0.945534C9.27673 0.315179 10.8362 0 12.4955 0C14.1549 0 15.715 0.314877 17.1759 0.944633C18.6367 1.57441 19.9074 2.4291 20.988 3.5087C22.0686 4.5883 22.9241 5.85782 23.5545 7.31727C24.1848 8.77673 24.5 10.3362 24.5 11.9955C24.5 13.6549 24.1851 15.215 23.5554 16.6759C22.9256 18.1367 22.0709 19.4074 20.9913 20.488C19.9117 21.5686 18.6422 22.4241 17.1827 23.0545C15.7233 23.6848 14.1638 24 12.5045 24ZM12.5 22.6667C15.4778 22.6667 18 21.6333 20.0667 19.5667C22.1333 17.5 23.1667 14.9778 23.1667 12C23.1667 9.02222 22.1333 6.5 20.0667 4.43333C18 2.36667 15.4778 1.33333 12.5 1.33333C9.52222 1.33333 7 2.36667 4.93333 4.43333C2.86667 6.5 1.83333 9.02222 1.83333 12C1.83333 14.9778 2.86667 17.5 4.93333 19.5667C7 21.6333 9.52222 22.6667 12.5 22.6667Z" fill="#0A6DE0"/>
</svg>
