<svg width="18" height="17" viewBox="0 0 18 17" fill="none" xmlns="http://www.w3.org/2000/svg">
<path d="M10.5 11.5385C10.7063 11.5385 10.8881 11.46 11.0452 11.303C11.2022 11.1459 11.2807 10.9641 11.2807 10.7578C11.2807 10.5513 11.2022 10.3695 11.0452 10.2125C10.8881 10.0555 10.7063 9.97703 10.5 9.97703C10.2937 9.97703 10.1119 10.0555 9.95475 10.2125C9.79775 10.3695 9.71925 10.5513 9.71925 10.7578C9.71925 10.9641 9.79775 11.1459 9.95475 11.303C10.1119 11.46 10.2937 11.5385 10.5 11.5385ZM10.0577 8.72303H10.9423C10.9679 8.30386 11.034 7.9882 11.1405 7.77603C11.2468 7.56386 11.5026 7.26803 11.9078 6.88853C12.3308 6.50386 12.6256 6.16061 12.7923 5.85878C12.9589 5.55678 13.0423 5.21028 13.0423 4.81928C13.0423 4.14611 12.8022 3.58486 12.322 3.13553C11.842 2.6862 11.2347 2.46153 10.5 2.46153C9.94483 2.46153 9.45158 2.61153 9.02025 2.91153C8.58875 3.21153 8.26017 3.62053 8.0345 4.13853L8.84625 4.49628C9.03458 4.10511 9.26433 3.81178 9.5355 3.61628C9.80667 3.42078 10.1282 3.32303 10.5 3.32303C10.977 3.32303 11.3725 3.46436 11.6865 3.74703C12.0007 4.02986 12.1578 4.39495 12.1578 4.84228C12.1578 5.11411 12.0814 5.36703 11.9288 5.60103C11.7763 5.83503 11.5141 6.11678 11.1423 6.44628C10.7204 6.81411 10.4342 7.15161 10.2837 7.45878C10.1331 7.76578 10.0577 8.1872 10.0577 8.72303ZM5.1155 14C4.65517 14 4.27083 13.8459 3.9625 13.5375C3.65417 13.2292 3.5 12.8449 3.5 12.3845V1.61553C3.5 1.1552 3.65417 0.770864 3.9625 0.462531C4.27083 0.154197 4.65517 3.05176e-05 5.1155 3.05176e-05H15.8845C16.3448 3.05176e-05 16.7292 0.154197 17.0375 0.462531C17.3458 0.770864 17.5 1.1552 17.5 1.61553V12.3845C17.5 12.8449 17.3458 13.2292 17.0375 13.5375C16.7292 13.8459 16.3448 14 15.8845 14H5.1155ZM5.1155 13H15.8845C16.0385 13 16.1796 12.9359 16.3077 12.8078C16.4359 12.6796 16.5 12.5385 16.5 12.3845V1.61553C16.5 1.46153 16.4359 1.32045 16.3077 1.19228C16.1796 1.06411 16.0385 1.00003 15.8845 1.00003H5.1155C4.9615 1.00003 4.82042 1.06411 4.69225 1.19228C4.56408 1.32045 4.5 1.46153 4.5 1.61553V12.3845C4.5 12.5385 4.56408 12.6796 4.69225 12.8078C4.82042 12.9359 4.9615 13 5.1155 13ZM2.1155 17C1.65517 17 1.27083 16.8459 0.9625 16.5375C0.654167 16.2292 0.5 15.8449 0.5 15.3848V3.61553H1.5V15.3848C1.5 15.5386 1.56408 15.6796 1.69225 15.8078C1.82042 15.9359 1.9615 16 2.1155 16H13.8845V17H2.1155Z" fill="currentColor"/>
</svg>


