<svg width="25" height="24" viewBox="0 0 25 24" fill="none" xmlns="http://www.w3.org/2000/svg">
<mask id="mask0_1164_10984" style="mask-type:alpha" maskUnits="userSpaceOnUse" x="0" y="0" width="25" height="24">
<rect x="0.5" width="24" height="24" fill="#D9D9D9"/>
</mask>
<g mask="url(#mask0_1164_10984)">
<path d="M16.1462 16.3539L16.8539 15.6462L13 11.7919V7H12V12.2077L16.1462 16.3539ZM12.5034 21C11.2588 21 10.0887 20.7638 8.9931 20.2915C7.89748 19.8192 6.94444 19.1782 6.13397 18.3685C5.32352 17.5588 4.68192 16.6066 4.20915 15.512C3.73638 14.4174 3.5 13.2479 3.5 12.0034C3.5 10.7588 3.73616 9.58872 4.20848 8.4931C4.68081 7.39748 5.32183 6.44444 6.13153 5.63398C6.94123 4.82353 7.89337 4.18192 8.98795 3.70915C10.0826 3.23638 11.2521 3 12.4966 3C13.7412 3 14.9113 3.23616 16.0069 3.70847C17.1025 4.18081 18.0556 4.82182 18.866 5.63152C19.6765 6.44122 20.3181 7.39337 20.7908 8.48795C21.2636 9.58255 21.5 10.7521 21.5 11.9966C21.5 13.2412 21.2638 14.4113 20.7915 15.5069C20.3192 16.6025 19.6782 17.5556 18.8685 18.366C18.0588 19.1765 17.1066 19.8181 16.012 20.2909C14.9174 20.7636 13.7479 21 12.5034 21ZM12.5 20C14.7167 20 16.6042 19.2208 18.1625 17.6625C19.7208 16.1042 20.5 14.2167 20.5 12C20.5 9.78333 19.7208 7.89583 18.1625 6.3375C16.6042 4.77917 14.7167 4 12.5 4C10.2833 4 8.39583 4.77917 6.8375 6.3375C5.27917 7.89583 4.5 9.78333 4.5 12C4.5 14.2167 5.27917 16.1042 6.8375 17.6625C8.39583 19.2208 10.2833 20 12.5 20Z" fill="#111129"/>
</g>
</svg>
