<svg width="18" height="18" viewBox="0 0 25 24" fill="none" xmlns="http://www.w3.org/2000/svg">
<path d="M10.0125 24L9.53046 20.1436C9.10482 20.0154 8.64456 19.8137 8.1497 19.5385C7.65483 19.2632 7.23388 18.9684 6.88686 18.6539L3.33046 20.1667L0.843262 15.8333L3.91763 13.5154C3.87832 13.2743 3.84584 13.0261 3.8202 12.7705C3.79455 12.5149 3.78173 12.2667 3.78173 12.0256C3.78173 11.8017 3.79455 11.5662 3.8202 11.3192C3.84584 11.0722 3.87832 10.794 3.91763 10.4846L0.843262 8.16667L3.33046 3.8846L6.86123 5.3718C7.25952 5.04018 7.69028 4.74103 8.15353 4.47437C8.61677 4.2077 9.06721 4.00171 9.50483 3.8564L10.0125 0H14.9869L15.4689 3.88203C15.98 4.06152 16.4318 4.26751 16.8241 4.5C17.2164 4.73247 17.6202 5.02307 18.0356 5.3718L21.6689 3.8846L24.1561 8.16667L20.9792 10.5615C21.0527 10.8368 21.0937 11.0893 21.1023 11.3192C21.1108 11.5491 21.1151 11.7761 21.1151 12C21.1151 12.2068 21.1066 12.4252 21.0895 12.6551C21.0723 12.885 21.033 13.1632 20.9715 13.4897L24.0971 15.8333L21.61 20.1667L18.0356 18.6282C17.6202 18.9769 17.2023 19.2761 16.7818 19.5256C16.3613 19.7752 15.9236 19.9727 15.4689 20.118L14.9869 24H10.0125ZM11.1664 22.6667H13.7741L14.2664 19.0564C14.9382 18.8786 15.5429 18.6346 16.0805 18.3244C16.6181 18.0141 17.1655 17.5889 17.7228 17.0487L21.0484 18.4667L22.3741 16.2L19.4561 14.0077C19.5672 13.6282 19.6407 13.2791 19.6766 12.9603C19.7125 12.6415 19.7305 12.3214 19.7305 12C19.7305 11.6615 19.7125 11.3414 19.6766 11.0397C19.6407 10.738 19.5672 10.406 19.4561 10.0436L22.4253 7.8L21.0997 5.53333L17.6971 6.95897C17.2937 6.51623 16.7634 6.10128 16.1061 5.7141C15.4488 5.32692 14.827 5.07009 14.2407 4.9436L13.833 1.33333H11.1741L10.7587 4.91793C10.0869 5.06153 9.46934 5.29273 8.90609 5.61153C8.34285 5.93033 7.7826 6.36837 7.22533 6.92563L3.89969 5.53333L2.57406 7.8L5.46636 9.95897C5.35525 10.2581 5.27747 10.5829 5.23303 10.9333C5.18858 11.2838 5.16636 11.6479 5.16636 12.0256C5.16636 12.3641 5.18858 12.7 5.23303 13.0333C5.27747 13.3667 5.34671 13.6915 5.44073 14.0077L2.57406 16.2L3.89969 18.4667L7.1997 17.0667C7.72276 17.5949 8.26593 18.0184 8.8292 18.3372C9.39244 18.656 10.0271 18.9043 10.733 19.0821L11.1664 22.6667ZM12.4638 15.3333C13.3937 15.3333 14.1817 15.0103 14.8279 14.3641C15.4741 13.7179 15.7971 12.9299 15.7971 12C15.7971 11.0701 15.4741 10.2821 14.8279 9.6359C14.1817 8.98975 13.3937 8.66667 12.4638 8.66667C11.5288 8.66667 10.7394 8.98975 10.0958 9.6359C9.45225 10.2821 9.13046 11.0701 9.13046 12C9.13046 12.9299 9.45225 13.7179 10.0958 14.3641C10.7394 15.0103 11.5288 15.3333 12.4638 15.3333Z" fill="currentColor"/>
</svg>
