<svg width="44" height="38" viewBox="0 0 44 38" fill="none" xmlns="http://www.w3.org/2000/svg">
<path d="M0.371735 37.6668L22 0.333496L43.6282 37.6668H0.371735ZM4.38332 35.3335H39.6166L22 5.00016L4.38332 35.3335ZM22 32.1027C22.4068 32.1027 22.7479 31.9651 23.0231 31.6899C23.2983 31.4147 23.4359 31.0737 23.4359 30.6668C23.4359 30.26 23.2983 29.9189 23.0231 29.6437C22.7479 29.3685 22.4068 29.231 22 29.231C21.5931 29.231 21.2521 29.3685 20.9769 29.6437C20.7017 29.9189 20.5641 30.26 20.5641 30.6668C20.5641 31.0737 20.7017 31.4147 20.9769 31.6899C21.2521 31.9651 21.5931 32.1027 22 32.1027ZM20.8333 26.8976H23.1667V15.231H20.8333V26.8976Z" fill="#E64D4D"/>
</svg>
